<?xml version="1.0" encoding="UTF-8"?>
<svg width="2493px" height="258px" viewBox="0 0 2493 258" version="1.1" xmlns="http://www.w3.org/2000/svg" xmlns:xlink="http://www.w3.org/1999/xlink">
    <title>OpenServiceMesh</title>
    <g id="Page-1" stroke="none" stroke-width="1" fill="none" fill-rule="evenodd">
        <path d="M95.8285714,201.792857 C109.1125,201.792857 121.551786,199.258929 133.146429,194.191071 C144.741071,189.123214 154.915179,182.078125 163.66875,173.055804 C172.422321,164.033482 179.275446,153.552232 184.228125,141.612054 C189.180804,129.671875 191.657143,116.867857 191.657143,103.2 C191.657143,89.4553571 189.180804,76.6321429 184.228125,64.7303571 C179.275446,52.8285714 172.422321,42.3665179 163.66875,33.3441964 C154.915179,24.321875 144.741071,17.2767857 133.146429,12.2089286 C121.551786,7.14107143 109.1125,4.60714286 95.8285714,4.60714286 C82.5446429,4.60714286 70.1053571,7.14107143 58.5107143,12.2089286 C46.9160714,17.2767857 36.7419643,24.321875 27.9883929,33.3441964 C19.2348214,42.3665179 12.3816964,52.8285714 7.42901786,64.7303571 C2.47633929,76.6321429 0,89.4553571 0,103.2 C0,116.867857 2.47633929,129.671875 7.42901786,141.612054 C12.3816964,153.552232 19.2348214,164.033482 27.9883929,173.055804 C36.7419643,182.078125 46.9160714,189.123214 58.5107143,194.191071 C70.1053571,199.258929 82.5446429,201.792857 95.8285714,201.792857 Z M95.8285714,172.767857 C86.8446429,172.767857 78.4941964,171.020982 70.7772321,167.527232 C63.0602679,164.033482 56.3415179,159.157589 50.6209821,152.899554 C44.9004464,146.641518 40.4660714,139.289286 37.3178571,130.842857 C34.1696429,122.396429 32.5955357,113.182143 32.5955357,103.2 C32.5955357,93.2178571 34.1696429,84.0035714 37.3178571,75.5571429 C40.4660714,67.1107143 44.9004464,59.7584821 50.6209821,53.5004464 C56.3415179,47.2424107 63.0602679,42.3665179 70.7772321,38.8727679 C78.4941964,35.3790179 86.8446429,33.6321429 95.8285714,33.6321429 C104.889286,33.6321429 113.278125,35.3790179 120.995089,38.8727679 C128.712054,42.3665179 135.430804,47.2424107 141.151339,53.5004464 C146.871875,59.7584821 151.30625,67.1107143 154.454464,75.5571429 C157.602679,84.0035714 159.176786,93.2178571 159.176786,103.2 C159.176786,113.182143 157.602679,122.396429 154.454464,130.842857 C151.30625,139.289286 146.871875,146.641518 141.151339,152.899554 C135.430804,159.157589 128.712054,164.033482 120.995089,167.527232 C113.278125,171.020982 104.889286,172.767857 95.8285714,172.767857 Z M270.094086,258 L270.094086,179.217857 C275.238729,186.358929 281.650336,191.906696 289.328908,195.861161 C297.007479,199.815625 305.300336,201.792857 314.207479,201.792857 C325.341408,201.792857 335.304354,199.047768 344.096318,193.557589 C352.888283,188.067411 359.83739,180.6 364.94364,171.155357 C370.04989,161.710714 372.603015,151.0375 372.603015,139.135714 C372.603015,127.080357 370.030693,116.349554 364.88605,106.943304 C359.741408,97.5370536 352.734711,90.1080357 343.865961,84.65625 C334.997211,79.2044643 324.880693,76.4785714 313.516408,76.4785714 C304.532479,76.4785714 296.239622,78.3790179 288.637836,82.1799107 C281.03605,85.9808036 274.8548,91.2982143 270.094086,98.1321429 L270.094086,98.1321429 L270.094086,80.1642857 L241.414622,80.1642857 L241.414622,258 L270.094086,258 Z M306.0298,177.259821 C298.965515,177.259821 292.64989,175.628125 287.082925,172.364732 C281.515961,169.101339 277.158372,164.590179 274.010158,158.83125 C270.861943,153.072321 269.287836,146.507143 269.287836,139.135714 C269.287836,131.764286 270.88114,125.199107 274.067747,119.440179 C277.254354,113.68125 281.611943,109.170089 287.140515,105.906696 C292.669086,102.643304 298.965515,101.011607 306.0298,101.011607 C313.094086,101.011607 319.352122,102.643304 324.803908,105.906696 C330.255693,109.170089 334.57489,113.700446 337.761497,119.497768 C340.948104,125.295089 342.541408,131.879464 342.541408,139.250893 C342.541408,146.622321 340.9673,153.168304 337.819086,158.888839 C334.670872,164.609375 330.351675,169.101339 324.861497,172.364732 C319.371318,175.628125 313.094086,177.259821 306.0298,177.259821 Z M477.163194,201.792857 C489.372123,201.792857 500.448462,199.162946 510.392212,193.903125 C520.335962,188.643304 528.110516,181.329464 533.715873,171.961607 L533.715873,171.961607 L512.868552,161.25 C508.338194,167.1625 503.289534,171.558482 497.722569,174.437946 C492.155605,177.317411 485.801587,178.757143 478.660516,178.757143 C471.135516,178.757143 464.474355,177.240625 458.677034,174.207589 C452.879712,171.174554 448.368552,166.951339 445.143552,161.537946 C441.918552,156.124554 440.306052,149.847321 440.306052,142.70625 L440.306052,142.70625 L536.36498,142.70625 C536.595337,141.170536 536.748909,140.076339 536.825694,139.423661 C536.90248,138.770982 536.940873,137.945536 536.940873,136.947321 C536.940873,124.891964 534.349355,114.333929 529.166319,105.273214 C523.983284,96.2125 516.765427,89.1482143 507.512748,84.0803571 C498.260069,79.0125 487.490873,76.4785714 475.205159,76.4785714 C466.22123,76.4785714 457.851587,78.0910714 450.09623,81.3160714 C442.340873,84.5410714 435.545337,89.0330357 429.709623,94.7919643 C423.873909,100.550893 419.305159,107.23125 416.003373,114.833036 C412.701587,122.434821 411.050694,130.6125 411.050694,139.366071 C411.050694,151.191071 413.949355,161.825893 419.746677,171.270536 C425.543998,180.715179 433.414534,188.163393 443.358284,193.615179 C453.302034,199.066964 464.570337,201.792857 477.163194,201.792857 Z M508.491766,124.738393 L441.573016,124.738393 C442.340873,119.286607 444.222123,114.602679 447.216766,110.686607 C450.211409,106.770536 454.089087,103.7375 458.849802,101.5875 C463.610516,99.4375 469.023909,98.3625 475.08998,98.3625 C480.848909,98.3625 486.070337,99.4566964 490.754266,101.645089 C495.438194,103.833482 499.315873,106.885714 502.387302,110.801786 C505.45873,114.717857 507.493552,119.363393 508.491766,124.738393 L508.491766,124.738393 Z M612.583445,198.107143 L612.583445,125.775 C612.583445,120.860714 613.735231,116.387946 616.038802,112.356696 C618.342373,108.325446 621.644159,105.100446 625.944159,102.681696 C630.244159,100.262946 635.350409,99.0535714 641.262909,99.0535714 C649.862909,99.0535714 656.600856,101.721875 661.476748,107.058482 C666.352641,112.395089 668.790588,119.977679 668.790588,129.80625 L668.790588,129.80625 L668.790588,198.107143 L697.470052,198.107143 L697.470052,123.816964 C697.470052,114.141964 695.588802,105.772321 691.826302,98.7080357 C688.063802,91.64375 682.784784,86.1727679 675.989248,82.2950893 C669.193713,78.4174107 661.265588,76.4785714 652.204873,76.4785714 C643.451302,76.4785714 635.676748,78.1486607 628.881213,81.4888393 C622.085677,84.8290179 616.653088,89.1098214 612.583445,94.33125 L612.583445,94.33125 L612.583445,80.1642857 L583.903981,80.1642857 L583.903981,198.107143 L612.583445,198.107143 Z M880.784711,201.5625 C917.872211,201.5625 952.425783,185.667857 952.425783,140.2875 C952.425783,115.408929 929.159711,97.4410714 907.966854,88.4571429 C886.313283,79.2428571 868.345426,71.6410714 868.345426,61.0446429 C868.345426,50.6785714 876.177568,43.9982143 890.920426,43.9982143 C910.500783,43.9982143 929.390068,57.1285714 929.390068,57.1285714 L946.897211,22.575 C946.897211,22.575 922.479354,4.60714286 887.925783,4.60714286 C857.288283,4.60714286 825.959711,27.1821429 825.959711,62.6571429 C825.959711,82.4678571 839.320426,100.205357 862.125783,111.492857 C884.700783,122.780357 904.972211,129 904.972211,142.821429 C904.972211,160.558929 887.004354,161.480357 877.559711,161.480357 C856.366854,161.480357 831.027568,140.057143 831.027568,140.057143 L809.373997,176.453571 C809.373997,176.453571 836.325783,201.5625 880.784711,201.5625 Z M1041.93233,201.5625 C1068.19304,201.5625 1089.84662,193.039286 1103.20733,170.694643 L1073.72162,155.951786 C1063.81626,166.548214 1058.05733,169.082143 1044.92697,169.082143 C1034.5609,169.082143 1019.35733,162.8625 1019.35733,144.664286 L1105.05019,144.664286 C1105.28054,143.282143 1105.28054,140.748214 1105.28054,139.135714 C1105.28054,97.6714286 1077.86804,76.4785714 1041.93233,76.4785714 C1006.22697,76.4785714 976.971615,104.582143 976.971615,139.135714 C976.971615,173.458929 1006.22697,201.5625 1041.93233,201.5625 Z M1065.42876,122.089286 L1020.50912,122.089286 C1021.20019,111.2625 1029.03233,102.969643 1043.08412,102.969643 C1055.06269,102.969643 1063.5859,109.65 1065.42876,122.089286 Z M1177.5103,198.107143 L1177.5103,135.910714 C1177.5103,132.916071 1180.50495,111.953571 1201.6978,111.953571 C1215.28888,111.953571 1222.89066,118.403571 1222.89066,118.403571 L1239.93709,83.85 C1239.93709,83.85 1229.34066,76.4785714 1214.13709,76.4785714 C1190.87102,76.4785714 1177.97102,96.9803571 1177.97102,96.9803571 L1177.5103,96.9803571 L1177.5103,79.9339286 L1136.73709,79.9339286 L1136.73709,198.107143 L1177.5103,198.107143 Z M1336.81507,198.107143 L1400.16328,79.9339286 L1351.78828,79.9339286 L1322.99364,144.203571 L1294.19899,79.9339286 L1245.82399,79.9339286 L1309.17221,198.107143 L1336.81507,198.107143 Z M1443.13768,55.2857143 C1456.4984,55.2857143 1467.32518,44.4589286 1467.32518,31.0982143 C1467.32518,17.7375 1456.4984,6.91071429 1443.13768,6.91071429 C1429.77697,6.91071429 1418.95018,17.7375 1418.95018,31.0982143 C1418.95018,44.4589286 1429.77697,55.2857143 1443.13768,55.2857143 Z M1462.9484,198.107143 L1462.9484,79.9339286 L1422.17518,79.9339286 L1422.17518,198.107143 L1462.9484,198.107143 Z M1561.43887,201.5625 C1587.69959,201.5625 1601.0603,190.966071 1601.0603,190.966071 L1587.23887,162.632143 C1587.23887,162.632143 1579.63709,168.160714 1567.42816,168.160714 C1551.99423,168.160714 1539.32459,155.260714 1539.32459,138.905357 C1539.32459,122.780357 1551.99423,109.880357 1567.42816,109.880357 C1579.63709,109.880357 1587.23887,115.408929 1587.23887,115.408929 L1601.0603,87.5357143 C1601.0603,87.5357143 1587.69959,76.4785714 1561.43887,76.4785714 C1527.11566,76.4785714 1496.01745,104.582143 1496.01745,139.366071 C1496.01745,173.919643 1527.34602,201.5625 1561.43887,201.5625 Z M1686.88114,201.5625 C1713.14185,201.5625 1734.79542,193.039286 1748.15614,170.694643 L1718.67042,155.951786 C1708.76506,166.548214 1703.00614,169.082143 1689.87578,169.082143 C1679.50971,169.082143 1664.30614,162.8625 1664.30614,144.664286 L1749.99899,144.664286 C1750.22935,143.282143 1750.22935,140.748214 1750.22935,139.135714 C1750.22935,97.6714286 1722.81685,76.4785714 1686.88114,76.4785714 C1651.17578,76.4785714 1621.92042,104.582143 1621.92042,139.135714 C1621.92042,173.458929 1651.17578,201.5625 1686.88114,201.5625 Z M1710.37756,122.089286 L1665.45792,122.089286 C1666.14899,111.2625 1673.98114,102.969643 1688.03292,102.969643 C1700.01149,102.969643 1708.53471,109.65 1710.37756,122.089286 Z M1891.00316,198.107143 L1899.98709,85.4625 L1901.13887,85.4625 L1940.06923,196.955357 L1965.86923,196.955357 L2004.79959,85.4625 L2005.95137,85.4625 L2014.9353,198.107143 L2058.24244,198.107143 L2041.19601,8.0625 L1995.12459,8.0625 L1952.96923,117.7125 L1910.81387,8.0625 L1864.74244,8.0625 L1847.69601,198.107143 L1891.00316,198.107143 Z M2144.9847,201.5625 C2171.24542,201.5625 2192.89899,193.039286 2206.2597,170.694643 L2176.77399,155.951786 C2166.86863,166.548214 2161.1097,169.082143 2147.97935,169.082143 C2137.61328,169.082143 2122.4097,162.8625 2122.4097,144.664286 L2208.10256,144.664286 C2208.33292,143.282143 2208.33292,140.748214 2208.33292,139.135714 C2208.33292,97.6714286 2180.92042,76.4785714 2144.9847,76.4785714 C2109.27935,76.4785714 2080.02399,104.582143 2080.02399,139.135714 C2080.02399,173.458929 2109.27935,201.5625 2144.9847,201.5625 Z M2168.48113,122.089286 L2123.56149,122.089286 C2124.25256,111.2625 2132.0847,102.969643 2146.13649,102.969643 C2158.11506,102.969643 2166.63828,109.65 2168.48113,122.089286 Z M2276.41625,201.5625 C2300.60375,201.5625 2332.39304,196.033929 2332.39304,161.25 C2332.39304,137.0625 2312.12161,128.308929 2296.45732,123.471429 C2286.32161,120.246429 2278.02875,118.403571 2278.02875,112.183929 C2278.02875,106.655357 2281.71447,105.042857 2290.69839,105.042857 C2303.13768,105.042857 2316.95911,112.414286 2316.95911,112.414286 L2330.31982,85.6928571 C2330.31982,85.6928571 2313.50375,76.4785714 2290.69839,76.4785714 C2259.60018,76.4785714 2239.09839,90.3 2239.09839,114.4875 C2239.09839,132.225 2251.07697,140.517857 2263.05554,146.7375 C2276.41625,153.648214 2289.31625,154.339286 2289.31625,162.8625 C2289.31625,170.694643 2282.40554,171.385714 2276.64661,171.385714 C2263.51625,171.385714 2247.39125,157.794643 2247.39125,157.794643 L2230.80554,185.667857 C2230.80554,185.667857 2247.85197,201.5625 2276.41625,201.5625 Z M2406.2353,198.107143 L2406.2353,131.303571 C2406.2353,119.555357 2418.21387,108.267857 2430.4228,108.267857 C2443.55315,108.267857 2451.61565,119.555357 2451.61565,131.303571 L2451.61565,198.107143 L2492.38887,198.107143 L2492.38887,120.246429 C2492.38887,87.3053571 2462.21208,76.4785714 2440.55851,76.4785714 C2427.65851,76.4785714 2415.9103,83.1589286 2406.69601,92.3732143 L2406.2353,92.3732143 L2406.2353,0 L2365.46208,0 L2365.46208,198.107143 L2406.2353,198.107143 Z" id="OpenServiceMesh" fill="#1128A9" fill-rule="nonzero"></path>
    </g>
</svg>