<?xml version="1.0" encoding="UTF-8"?>
<svg width="177px" height="170px" viewBox="0 0 177 170" version="1.1" xmlns="http://www.w3.org/2000/svg" xmlns:xlink="http://www.w3.org/1999/xlink">
    <title>rust</title>
    <g id="Page-1" stroke="none" stroke-width="1" fill="none" fill-rule="evenodd">
        <g id="rust" style="mix-blend-mode: color;" transform="translate(1.000000, 0.000000)" fill-rule="nonzero">
            <g id="Group" transform="translate(8.832835, 2.918721)" fill="#4F5074">
                <path d="M77.9752479,1.091547 C78.8128194,-0.321330687 81.064175,-0.321330687 81.9048033,1.091547 L81.9048033,1.091547 L86.0620926,8.0686228 L88.018464,8.26706068 L93.4015422,2.26788675 C94.4928306,1.05503444 96.6968053,1.50429779 97.2562052,3.06640077 L97.2562052,3.06640077 L100.014995,10.7308654 L101.916343,11.329354 L108.312761,6.5493824 C109.611913,5.57783055 111.687501,6.47318226 111.944275,8.11148538 L111.944275,8.11148538 L113.21286,16.1934633 L114.959838,17.1666026 L122.134219,13.7693462 C123.592327,13.0803698 125.463107,14.3773598 125.401971,16.037888 L125.401971,16.037888 L125.125327,24.2389286 L126.641515,25.5343311 L134.330972,23.6515525 C135.893012,23.2705518 137.477979,24.9183799 137.111159,26.540808 L137.111159,26.540808 L135.29693,34.5291232 L136.544117,36.1007512 L144.43991,35.8150007 C146.047803,35.7515005 147.291933,37.6930167 146.622487,39.2106696 L146.622487,39.2106696 L143.353207,46.6639963 L144.288597,48.4785123 L152.06823,49.7929648 C153.648611,50.0628403 154.510637,52.2170819 153.57219,53.5664595 L153.57219,53.5664595 L148.970132,60.2053971 L149.547873,62.1834259 L156.925533,65.0488689 C158.426437,65.629895 158.865092,67.9174868 157.691269,69.054139 L157.691269,69.054139 L151.919974,74.6453247 L152.111026,76.6773285 L158.826882,80.9953368 C160.187171,81.8684634 160.185643,84.2068554 158.825353,85.076807 L158.825353,85.076807 L152.109497,89.3948153 L151.918445,91.4268191 L157.689741,97.0195923 C158.863564,98.1530695 158.424909,100.439074 156.924005,101.023275 L156.924005,101.023275 L149.546345,103.888718 L148.968604,105.866747 L153.570662,112.507272 C154.509109,113.859824 153.65014,116.015653 152.066702,116.279179 L152.066702,116.279179 L144.287068,117.593631 L143.351678,119.411322 L146.620958,126.861474 C147.290404,128.375952 146.03099,130.323818 144.438381,130.257143 L144.438381,130.257143 L136.542589,129.969805 L135.298459,131.544608 L137.109631,139.534511 C137.47645,141.153764 135.891484,142.798417 134.329444,142.417416 L134.329444,142.417416 L126.639987,140.536225 L125.125327,141.828453 L125.400442,150.031081 C125.458522,151.694784 123.590799,152.990186 122.13269,152.298035 L122.13269,152.298035 L114.95831,148.902366 L113.211331,149.875506 L111.942747,157.952721 C111.685973,159.594199 109.610385,160.486376 108.311232,159.517999 L108.311232,159.517999 L101.917871,154.734852 L100.013466,155.336516 L97.2546768,162.997806 C96.6952769,164.553558 94.4913022,165.012347 93.4000138,163.793145 L93.4000138,163.793145 L88.0169356,157.797146 L86.0605642,158.000346 L81.9032749,164.975834 C81.0626466,166.385537 78.811291,166.382362 77.9737195,164.975834 L77.9737195,164.975834 L73.8164303,158.000346 L71.8585304,157.797146 L66.4739238,163.793145 C65.3826354,165.012347 63.1786607,164.553558 62.6192608,162.997806 L62.6192608,162.997806 L59.8604714,155.336516 L57.9560661,154.734852 L51.5642339,159.517999 C50.265081,160.486376 48.1879648,159.597374 47.931191,157.952721 L47.931191,157.952721 L46.6626064,149.875506 L44.9156279,148.902366 L37.7412471,152.298035 C36.283139,152.990186 34.4123589,151.691609 34.4734955,150.031081 L34.4734955,150.031081 L34.7486102,141.828453 L33.2324224,140.536225 L25.5429657,142.417416 C23.9809254,142.798417 22.3944304,141.153764 22.7612501,139.534511 L22.7612501,139.534511 L24.572422,131.544608 L23.3252353,129.969805 L15.4324993,130.257143 C13.8398907,130.323818 12.5820051,128.375952 13.2483941,126.861474 L13.2483941,126.861474 L16.5192025,119.411322 L15.582284,117.593631 L7.80417925,116.279179 C6.22379797,116.015653 5.36330023,113.859824 6.29869032,112.507272 L6.29869032,112.507272 L10.9007484,105.866747 L10.3230074,103.888718 L2.94381903,101.023275 C1.44597216,100.439074 1.00731701,98.1530695 2.17808303,97.0195923 L2.17808303,97.0195923 L7.95090711,91.4268191 L7.75985521,89.3948153 L1.04399898,85.076807 C-0.316290522,84.2068554 -0.316290522,81.8684634 1.04399898,80.9953368 L1.04399898,80.9953368 L7.75985521,76.6773285 L7.95090711,74.6453247 L2.17808303,69.054139 C1.00731701,67.9174868 1.44597216,65.629895 2.94381903,65.0488689 L2.94381903,65.0488689 L10.3230074,62.1834259 L10.9007484,60.2053971 L6.29869032,53.5664595 C5.36635706,52.2170819 6.22226956,50.0596653 7.80265084,49.7929648 L7.80265084,49.7929648 L15.582284,48.4785123 L16.5192025,46.6639963 L13.2483941,39.2106696 C12.5850619,37.6930167 13.8398907,35.7673756 15.4324993,35.8150007 L15.4324993,35.8150007 L23.3282921,36.1007512 L24.572422,34.5291232 L22.7612501,26.540808 C22.3944304,24.9183799 23.9809254,23.2737268 25.5429657,23.6515525 L25.5429657,23.6515525 L33.2324224,25.5343311 L34.7486102,24.2389286 L34.4734955,16.037888 C34.4123589,14.3773598 36.283139,13.0771948 37.7412471,13.7693462 L37.7412471,13.7693462 L44.9156279,17.1666026 L46.6626064,16.1934633 L47.931191,8.11148538 C48.1879648,6.47318226 50.265081,5.57465555 51.5642339,6.5493824 L51.5642339,6.5493824 L57.9591229,11.329354 L59.8619998,10.7308654 L62.6207892,3.06640077 C63.1801891,1.50429779 65.3841638,1.05503444 66.4754522,2.26788675 L66.4754522,2.26788675 L71.8600588,8.26706068 L73.8179587,8.0686228 Z M79.8308085,20.5579419 C46.6727113,20.5579419 19.7927624,48.4770578 19.7927624,82.9170325 C19.7927624,117.357007 46.6727113,145.276123 79.8308085,145.276123 C112.988906,145.276123 139.868855,117.357007 139.868855,82.9170325 C139.868855,48.4770578 112.988906,20.5579419 79.8308085,20.5579419 Z" id="Combined-Shape"></path>
            </g>
            <g id="nut" transform="translate(68.760637, 0.000000)">
                <path d="M20.1668537,17.5738939 C24.4410619,17.5738939 27.9059922,21.172777 27.9059922,25.6122242 C27.9059922,30.0516714 24.4410619,33.6505544 20.1668537,33.6505544 C15.8926455,33.6505544 12.4277151,30.0516714 12.4277151,25.6122242 C12.4277151,21.172777 15.8926455,17.5738939 20.1668537,17.5738939 Z" id="Path" fill="#FFFFFF"></path>
                <g id="Group-2" fill="#4F5074">
                    <path d="M33.065951,11.9237584 C33.3826086,12.7624693 33.53521,13.6541995 33.5154607,14.5504796 L33.2463746,26.7623287 C33.1644549,30.4800653 30.1899493,33.4848869 26.4732344,33.6045001 L14.7359001,33.9822371 C10.8719073,34.1065901 7.63871425,31.0750131 7.51436124,27.2110203 C7.48551567,26.3147085 7.62916526,25.421203 7.93749726,24.5790995 L11.3605553,15.2301861 C12.0603195,13.3190194 13.5572245,11.8070367 15.4612824,11.0881542 L24.0446447,7.8474816 C27.6614424,6.48194943 31.7004188,8.30696074 33.065951,11.9237584 Z M22.7814566,16.6309197 C19.4570725,16.6309197 16.7621267,19.3954938 16.7621267,22.8057687 C16.7621267,26.2160437 19.4570725,28.9806177 22.7814566,28.9806177 C26.1058408,28.9806177 28.8007866,26.2160437 28.8007866,22.8057687 C28.8007866,19.3954938 26.1058408,16.6309197 22.7814566,16.6309197 Z" id="Combined-Shape" transform="translate(19.901648, 20.057052) rotate(45.000000) translate(-19.901648, -20.057052) "></path>
                </g>
            </g>
            <g id="nut" transform="translate(125.234926, 140.062548) rotate(-38.000000) translate(-125.234926, -140.062548) translate(106.103093, 120.147794)">
                <path d="M20.1668537,10.2445664 C24.4410619,10.2445664 27.9059922,13.8434494 27.9059922,18.2828967 C27.9059922,22.7223439 24.4410619,26.3212269 20.1668537,26.3212269 C15.8926455,26.3212269 12.4277151,22.7223439 12.4277151,18.2828967 C12.4277151,13.8434494 15.8926455,10.2445664 20.1668537,10.2445664 Z" id="Path" fill="#FFFFFF"></path>
                <g id="Group-2" transform="translate(-0.000000, 0.000000)" fill="#4F5074">
                    <path d="M24.7896214,6.39845833 C28.2508908,6.39159691 31.0623663,9.19194786 31.0692277,12.6532172 C31.0713589,13.7282993 30.7968958,14.7858541 30.272223,15.7242168 L25.9762677,23.4074133 C25.3671673,24.4967726 24.4778885,25.4034707 23.4005484,26.033586 L15.0443795,30.9209478 C12.1359766,32.6220164 8.39926163,31.6432786 6.69819299,28.7348758 C6.07593656,27.6709726 5.79051669,26.4435441 5.87952422,25.2142473 L6.77006573,12.9148395 C7.0347029,9.25989437 10.0734064,6.4276309 13.7379124,6.4203666 L24.7896214,6.39845833 Z M17.5582182,10.8438554 C14.2338341,10.8438554 11.5388882,13.6084295 11.5388882,17.0187044 C11.5388882,20.4289794 14.2338341,23.1935534 17.5582182,23.1935534 C20.8826024,23.1935534 23.5775482,20.4289794 23.5775482,17.0187044 C23.5775482,13.6084295 20.8826024,10.8438554 17.5582182,10.8438554 Z" id="Combined-Shape" transform="translate(19.104818, 19.966762) rotate(45.000000) translate(-19.104818, -19.966762) "></path>
                </g>
            </g>
            <g id="nut" transform="translate(149.268501, 65.879877) rotate(-108.000000) translate(-149.268501, -65.879877) translate(129.011266, 45.099264)">
                <path d="M20.464057,9.36244511 C24.7382652,9.36244511 28.2031955,12.9613282 28.2031955,17.4007754 C28.2031955,21.8402226 24.7382652,25.4391056 20.464057,25.4391056 C16.1898488,25.4391056 12.7249184,21.8402226 12.7249184,17.4007754 C12.7249184,12.9613282 16.1898488,9.36244511 20.464057,9.36244511 Z" id="Path" fill="#FFFFFF"></path>
                <g id="Group-2" transform="translate(0.000000, 0.000000)" fill="#4F5074">
                    <path d="M26.1830584,6.33233003 C29.6883542,6.28832494 32.5656309,9.09425539 32.609636,12.5995511 C32.6250349,13.8261708 32.2846644,15.0309732 31.6297009,16.0682079 L26.2253309,24.6268518 C25.6747926,25.4987131 24.938437,26.2381802 24.0689048,26.7923899 L15.4618717,32.2782149 C12.5730452,34.119453 8.73857021,33.2702147 6.89733215,30.3813881 C6.22444642,29.3256582 5.88677247,28.0910228 5.92870176,26.8397903 L6.3837936,13.2591703 C6.50907548,9.52057211 9.55159427,6.54111958 13.2919963,6.49416299 L26.1830584,6.33233003 Z M16.926531,10.9886836 C13.6021469,10.9886836 10.907201,13.7532577 10.907201,17.1635326 C10.907201,20.5738076 13.6021469,23.3383816 16.926531,23.3383816 C20.2509152,23.3383816 22.945861,20.5738076 22.945861,17.1635326 C22.945861,13.7532577 20.2509152,10.9886836 16.926531,10.9886836 Z" id="Combined-Shape" transform="translate(20.145992, 20.748356) rotate(45.000000) translate(-20.145992, -20.748356) "></path>
                </g>
            </g>
            <g id="nut" transform="translate(26.404500, 65.792591) scale(-1, 1) rotate(-108.000000) translate(-26.404500, -65.792591) translate(5.865915, 44.723359)">
                <path d="M21.026758,8.48032383 C25.3009662,8.48032383 28.7658965,12.0792069 28.7658965,16.5186541 C28.7658965,20.9581013 25.3009662,24.5569843 21.026758,24.5569843 C16.7525498,24.5569843 13.2876194,20.9581013 13.2876194,16.5186541 C13.2876194,12.0792069 16.7525498,8.48032383 21.026758,8.48032383 Z" id="Path" fill="#FFFFFF"></path>
                <g id="Group-2" transform="translate(0.000000, 0.000000)" fill="#4F5074">
                    <path d="M13.3765663,6.08262543 C13.4395009,6.08288459 13.5024292,6.08399248 13.565334,6.08594881 L27.4989102,6.51927979 C30.6673227,6.61781668 33.1559485,9.26620244 33.0574117,12.4346149 C33.0194006,13.6568446 32.5920377,14.8349914 31.8376089,15.7973464 L25.284937,24.1559842 C24.9894459,24.5329149 24.6560501,24.8785238 24.2899896,25.187379 L15.537817,32.5718264 C13.163365,34.5752165 9.61442278,34.2744114 7.6110327,31.8999594 C6.74969298,30.8790849 6.27972512,29.585024 6.28522542,28.2493367 L6.3478002,13.0537406 C6.36372005,9.18778016 9.51060582,6.06670557 13.3765663,6.08262543 Z M16.6962652,10.2730126 C13.371881,10.2730126 10.6769352,13.0375867 10.6769352,16.4478616 C10.6769352,19.8581366 13.371881,22.6227106 16.6962652,22.6227106 C20.0206493,22.6227106 22.7155952,19.8581366 22.7155952,16.4478616 C22.7155952,13.0375867 20.0206493,10.2730126 16.6962652,10.2730126 Z" id="Combined-Shape" transform="translate(20.508072, 20.931386) rotate(45.000000) translate(-20.508072, -20.931386) "></path>
                </g>
            </g>
            <g id="nut" transform="translate(49.850106, 139.849185) scale(-1, 1) rotate(-38.000000) translate(-49.850106, -139.849185) translate(30.999623, 120.511670)">
                <path d="M18.4470451,8.78520587 C22.7212533,8.78520587 26.1861837,12.3840889 26.1861837,16.8235361 C26.1861837,21.2629833 22.7212533,24.8618664 18.4470451,24.8618664 C14.1728369,24.8618664 10.7079066,21.2629833 10.7079066,16.8235361 C10.7079066,12.3840889 14.1728369,8.78520587 18.4470451,8.78520587 Z" id="Path" fill="#FFFFFF"></path>
                <g id="Group-2" transform="translate(-0.000000, 0.000000)" fill="#4F5074">
                    <path d="M24.7057653,6.13781277 C27.9578652,6.11013011 30.6166543,8.72403677 30.644337,11.9761367 C30.6548488,13.2110467 30.2768479,14.4180086 29.5637981,15.4263108 L23.7506654,23.6464873 C23.206475,24.4160107 22.5124881,25.0677132 21.7103174,25.5625178 L14.1942122,30.1986921 C11.497987,31.8618101 7.96404101,31.0243113 6.30092297,28.328086 C5.7441239,27.4254106 5.44849578,26.3860359 5.44688638,25.3254486 L5.42856719,13.2531951 C5.42272969,9.40631335 8.52222875,6.27557093 12.3689756,6.2428265 L24.7057653,6.13781277 Z M15.7368704,10.7126012 C12.4124863,10.7126012 9.71754042,13.4771752 9.71754042,16.8874502 C9.71754042,20.2977251 12.4124863,23.0622992 15.7368704,23.0622992 C19.0612546,23.0622992 21.7562004,20.2977251 21.7562004,16.8874502 C21.7562004,13.4771752 19.0612546,10.7126012 15.7368704,10.7126012 Z" id="Combined-Shape" transform="translate(18.897028, 19.297190) rotate(45.000000) translate(-18.897028, -19.297190) "></path>
                </g>
            </g>
        </g>
    </g>
</svg>