<?xml version="1.0" encoding="UTF-8"?>
<svg width="177px" height="170px" viewBox="0 0 177 170" version="1.1" xmlns="http://www.w3.org/2000/svg" xmlns:xlink="http://www.w3.org/1999/xlink">
    <title>rust</title>
    <defs>
        <path d="M81.8129253,0.950427235 L81.9048033,1.091547 L86.0620926,8.0686228 L88.018464,8.26706068 L93.4015422,2.26788675 C94.4564543,1.09546285 96.55111,1.4761937 97.1948855,2.91392028 L97.2562052,3.06640077 L100.014995,10.7308654 L101.916343,11.329354 L108.312761,6.5493824 C109.570005,5.60917094 111.5544,6.4173603 111.913835,7.95529695 L111.944275,8.11148538 L113.21286,16.1934633 L114.959838,17.1666026 L122.134219,13.7693462 C123.546761,13.1019004 125.346586,14.2982374 125.402114,15.883328 L125.401971,16.037888 L125.125327,24.2389286 L126.641515,25.5343311 L134.330972,23.6515525 C135.844198,23.282458 137.378941,24.8173719 137.139891,26.3886936 L137.111159,26.540808 L135.29693,34.5291232 L136.544117,36.1007512 L144.43991,35.8150007 C145.997556,35.7534849 147.213819,37.57363 146.679688,39.067222 L146.622487,39.2106696 L143.353207,46.6639963 L144.288597,48.4785123 L152.06823,49.7929648 C153.597631,50.0541347 154.454275,52.0800594 153.657424,53.4334523 L153.57219,53.5664595 L148.970132,60.2053971 L149.547873,62.1834259 L156.925533,65.0488689 C158.376407,65.6105274 158.834668,67.7668769 157.803297,68.9367432 L157.691269,69.054139 L151.919974,74.6453247 L152.111026,76.6773285 L158.826882,80.9953368 C160.13859,81.8372803 160.184015,84.0416963 158.965899,84.9781125 L158.825353,85.076807 L152.109497,89.3948153 L151.918445,91.4268191 L157.689741,97.0195923 C158.824436,98.1152869 158.452361,100.287954 157.070534,100.959288 L156.924005,101.023275 L149.546345,103.888718 L148.968604,105.866747 L153.570662,112.507272 C154.478836,113.816194 153.703687,115.877404 152.21764,116.24786 L152.066702,116.279179 L144.287068,117.593631 L143.351678,119.411322 L146.620958,126.861474 C147.269484,128.328625 146.10782,130.2025 144.586664,130.257567 L144.438381,130.257143 L136.542589,129.969805 L135.298459,131.544608 L137.109631,139.534511 C137.464987,141.103162 135.988638,142.695651 134.475892,142.447263 L134.329444,142.417416 L126.639987,140.536225 L125.125327,141.828453 L125.400442,150.031081 C125.456707,151.642793 123.705651,152.908864 122.270517,152.357151 L122.13269,152.298035 L114.95831,148.902366 L113.211331,149.875506 L111.942747,157.952721 C111.694256,159.541248 109.742401,160.428036 108.439293,159.605942 L108.311232,159.517999 L101.917871,154.734852 L100.013466,155.336516 L97.2546768,162.997806 C96.7139235,164.5017 94.6364065,164.980542 93.5127495,163.909493 L93.4000138,163.793145 L88.0169356,157.797146 L86.0605642,158.000346 L81.9032749,164.975834 C81.0916337,166.336927 78.9648795,166.380901 78.0652923,165.116331 L77.9737195,164.975834 L73.8164303,158.000346 L71.8585304,157.797146 L66.4739238,163.793145 C65.4190117,164.971707 63.324356,164.58228 62.6805805,163.149703 L62.6192608,162.997806 L59.8604714,155.336516 L57.9560661,154.734852 L51.5642339,159.517999 C50.3069891,160.455138 48.3211627,159.652796 47.9616355,158.109485 L47.931191,157.952721 L46.6626064,149.875506 L44.9156279,148.902366 L37.7412471,152.298035 C36.3287049,152.968557 34.5288796,151.770826 34.4733523,150.185645 L34.4734955,150.031081 L34.7486102,141.828453 L33.2324224,140.536225 L25.5429657,142.417416 C24.0297391,142.786511 22.4935625,141.254577 22.732523,139.686328 L22.7612501,139.534511 L24.572422,131.544608 L23.3252353,129.969805 L15.4324993,130.257143 C13.8896598,130.321735 12.6609498,128.495726 13.1915091,127.004651 L13.2483941,126.861474 L16.5192025,119.411322 L15.582284,117.593631 L7.80417925,116.279179 C6.27477801,116.024154 5.41956532,113.996941 6.21373889,112.640581 L6.29869032,112.507272 L10.9007484,105.866747 L10.3230074,103.888718 L2.94381903,101.023275 C1.49590039,100.458547 1.03773757,98.3035788 2.06635078,97.136676 L2.17808303,97.0195923 L7.95090711,91.4268191 L7.75985521,89.3948153 L1.04399898,85.076807 C-0.267708754,84.2379251 -0.314555459,82.0336184 0.903458861,81.0943593 L1.04399898,80.9953368 L7.75985521,76.6773285 L7.95090711,74.6453247 L2.17808303,69.054139 C1.04634255,67.9553752 1.41851673,65.7811223 2.79758536,65.1125542 L2.94381903,65.0488689 L10.3230074,62.1834259 L10.9007484,60.2053971 L6.29869032,53.5664595 C5.39643233,52.2606102 6.16891021,50.1980126 7.65200803,49.8245863 L7.80265084,49.7929648 L15.582284,48.4785123 L16.5192025,46.6639963 L13.2483941,39.2106696 C12.605791,37.7404434 13.7633371,35.8873297 15.2842301,35.8162442 L15.4324993,35.8150007 L23.3282921,36.1007512 L24.572422,34.5291232 L22.7612501,26.540808 C22.4058935,24.9690808 23.883677,23.3764959 25.3965131,23.6219942 L25.5429657,23.6515525 L33.2324224,25.5343311 L34.7486102,24.2389286 L34.4734955,16.037888 C34.4142694,14.4292513 36.1681019,13.1588071 37.603412,13.710244 L37.7412471,13.7693462 L44.9156279,17.1666026 L46.6626064,16.1934633 L47.931191,8.11148538 C48.1799406,6.52437923 50.1370389,5.6315359 51.4402384,6.46345522 L51.5642339,6.5493824 L57.9591229,11.329354 L59.8619998,10.7308654 L62.6207892,3.06640077 C63.1615425,1.55636789 65.2390595,1.08622181 66.3627165,2.15212156 L66.4754522,2.26788675 L71.8600588,8.26706068 L73.8179587,8.0686228 L77.9752479,1.091547 C78.7839377,-0.272610767 80.9105902,-0.31965069 81.8129253,0.950427235 Z M79.6855745,14.5220796 C76.0957236,14.5220796 73.1855745,17.4322287 73.1855745,21.0220796 L73.1857073,20.9355762 C51.4133498,23.425567 33.1464665,38.0074891 24.7460539,58.0744324 C24.3113754,57.9830061 23.8577195,57.9341649 23.3926562,57.9341649 C19.8028054,57.9341649 16.8926562,60.844314 16.8926562,64.4341649 C16.8926562,67.1750441 18.5891107,69.5196951 20.9892867,70.475385 C20.2041817,74.4952441 19.7927624,78.6562348 19.7927624,82.9170325 C19.7927624,101.225444 27.3890973,117.691045 39.4867098,129.099126 C37.9930096,130.288689 37.0357568,132.123996 37.0357568,134.182881 C37.0357568,137.772732 39.945906,140.682881 43.5357568,140.682881 C46.2144976,140.682881 48.5147722,139.062475 49.5098475,136.748397 C58.4076898,142.169416 68.7699479,145.276123 79.8308085,145.276123 C90.592193,145.276123 100.692292,142.335369 109.426834,137.185359 C110.510438,139.263259 112.686161,140.682881 115.193453,140.682881 C118.783304,140.682881 121.693453,137.772732 121.693453,134.182881 C121.693453,132.353938 120.938078,130.701422 119.722288,129.520294 C132.082627,118.099827 139.868855,101.452868 139.868855,82.9170325 C139.868855,78.6028423 139.44706,74.390976 138.643966,70.3234957 C140.857296,69.2889124 142.391533,67.0407088 142.391533,64.4341649 C142.391533,60.844314 139.481384,57.9341649 135.891533,57.9341649 C135.549759,57.9341649 135.214145,57.9605429 134.886617,58.0113741 C126.439348,37.8874254 108.062065,23.2928926 86.1838839,20.9029273 C86.1214135,17.3685028 83.2359029,14.5220796 79.6855745,14.5220796 Z" id="path-1"></path>
    </defs>
    <g id="Page-1" stroke="none" stroke-width="1" fill="none" fill-rule="evenodd">
        <g id="rust" style="mix-blend-mode: color;" fill-rule="nonzero">
            <g id="Combined-Shape" transform="translate(9.832835, 2.918721)">
                <use fill="#F86531" xlink:href="#path-1"></use>
                <use fill-opacity="0.531577797" fill="#564B4B" xlink:href="#path-1"></use>
            </g>
            <g id="Group-2" transform="translate(69.760637, 0.000000)" fill="#A1573E">
                <path d="M33.065951,11.9237584 C33.3826086,12.7624693 33.53521,13.6541995 33.5154607,14.5504796 L33.2463746,26.7623287 C33.1644549,30.4800653 30.1899493,33.4848869 26.4732344,33.6045001 L14.7359001,33.9822371 C10.8719073,34.1065901 7.63871425,31.0750131 7.51436124,27.2110203 C7.48551567,26.3147085 7.62916526,25.421203 7.93749726,24.5790995 L11.3605553,15.2301861 C12.0603195,13.3190194 13.5572245,11.8070367 15.4612824,11.0881542 L24.0446447,7.8474816 C27.6614424,6.48194943 31.7004188,8.30696074 33.065951,11.9237584 Z M22.7814566,16.6309197 C19.4570725,16.6309197 16.7621267,19.3954938 16.7621267,22.8057687 C16.7621267,26.2160437 19.4570725,28.9806177 22.7814566,28.9806177 C26.1058408,28.9806177 28.8007866,26.2160437 28.8007866,22.8057687 C28.8007866,19.3954938 26.1058408,16.6309197 22.7814566,16.6309197 Z" id="Combined-Shape" transform="translate(19.901648, 20.057052) rotate(45.000000) translate(-19.901648, -20.057052) "></path>
            </g>
            <g id="nut" transform="translate(126.577528, 139.903057) rotate(-38.000000) translate(-126.577528, -139.903057) translate(107.077528, 119.903057)" fill="#A1573E">
                <g id="Group-2" transform="translate(-0.000000, 0.000000)">
                    <path d="M24.7896214,6.39845833 C28.2508908,6.39159691 31.0623663,9.19194786 31.0692277,12.6532172 C31.0713589,13.7282993 30.7968958,14.7858541 30.272223,15.7242168 L25.9762677,23.4074133 C25.3671673,24.4967726 24.4778885,25.4034707 23.4005484,26.033586 L15.0443795,30.9209478 C12.1359766,32.6220164 8.39926163,31.6432786 6.69819299,28.7348758 C6.07593656,27.6709726 5.79051669,26.4435441 5.87952422,25.2142473 L6.77006573,12.9148395 C7.0347029,9.25989437 10.0734064,6.4276309 13.7379124,6.4203666 L24.7896214,6.39845833 Z M17.5582182,10.8438554 C14.2338341,10.8438554 11.5388882,13.6084295 11.5388882,17.0187044 C11.5388882,20.4289794 14.2338341,23.1935534 17.5582182,23.1935534 C20.8826024,23.1935534 23.5775482,20.4289794 23.5775482,17.0187044 C23.5775482,13.6084295 20.8826024,10.8438554 17.5582182,10.8438554 Z" id="Combined-Shape" transform="translate(19.104818, 19.966762) rotate(45.000000) translate(-19.104818, -19.966762) "></path>
                </g>
            </g>
            <g id="nut" transform="translate(150.402132, 65.581199) rotate(-108.000000) translate(-150.402132, -65.581199) translate(129.902132, 44.581199)" fill="#A1573E">
                <g id="Group-2" transform="translate(0.000000, 0.000000)">
                    <path d="M26.1830584,6.33233003 C29.6883542,6.28832494 32.5656309,9.09425539 32.609636,12.5995511 C32.6250349,13.8261708 32.2846644,15.0309732 31.6297009,16.0682079 L26.2253309,24.6268518 C25.6747926,25.4987131 24.938437,26.2381802 24.0689048,26.7923899 L15.4618717,32.2782149 C12.5730452,34.119453 8.73857021,33.2702147 6.89733215,30.3813881 C6.22444642,29.3256582 5.88677247,28.0910228 5.92870176,26.8397903 L6.3837936,13.2591703 C6.50907548,9.52057211 9.55159427,6.54111958 13.2919963,6.49416299 L26.1830584,6.33233003 Z M16.926531,10.9886836 C13.6021469,10.9886836 10.907201,13.7532577 10.907201,17.1635326 C10.907201,20.5738076 13.6021469,23.3383816 16.926531,23.3383816 C20.2509152,23.3383816 22.945861,20.5738076 22.945861,17.1635326 C22.945861,13.7532577 20.2509152,10.9886836 16.926531,10.9886836 Z" id="Combined-Shape" transform="translate(20.145992, 20.748356) rotate(45.000000) translate(-20.145992, -20.748356) "></path>
                </g>
            </g>
            <g id="nut" transform="translate(27.137401, 65.220645) scale(-1, 1) rotate(-108.000000) translate(-27.137401, -65.220645) translate(6.137401, 43.720645)" fill="#A1573E">
                <g id="Group-2" transform="translate(0.000000, 0.000000)">
                    <path d="M13.3765663,6.08262543 C13.4395009,6.08288459 13.5024292,6.08399248 13.565334,6.08594881 L27.4989102,6.51927979 C30.6673227,6.61781668 33.1559485,9.26620244 33.0574117,12.4346149 C33.0194006,13.6568446 32.5920377,14.8349914 31.8376089,15.7973464 L25.284937,24.1559842 C24.9894459,24.5329149 24.6560501,24.8785238 24.2899896,25.187379 L15.537817,32.5718264 C13.163365,34.5752165 9.61442278,34.2744114 7.6110327,31.8999594 C6.74969298,30.8790849 6.27972512,29.585024 6.28522542,28.2493367 L6.3478002,13.0537406 C6.36372005,9.18778016 9.51060582,6.06670557 13.3765663,6.08262543 Z M16.6962652,10.2730126 C13.371881,10.2730126 10.6769352,13.0375867 10.6769352,16.4478616 C10.6769352,19.8581366 13.371881,22.6227106 16.6962652,22.6227106 C20.0206493,22.6227106 22.7155952,19.8581366 22.7155952,16.4478616 C22.7155952,13.0375867 20.0206493,10.2730126 16.6962652,10.2730126 Z" id="Combined-Shape" transform="translate(20.508072, 20.931386) rotate(45.000000) translate(-20.508072, -20.931386) "></path>
                </g>
            </g>
            <g id="nut" transform="translate(50.632248, 139.885173) scale(-1, 1) rotate(-38.000000) translate(-50.632248, -139.885173) translate(31.632248, 120.385173)" fill="#A1573E">
                <g id="Group-2" transform="translate(-0.000000, 0.000000)">
                    <path d="M24.7057653,6.13781277 C27.9578652,6.11013011 30.6166543,8.72403677 30.644337,11.9761367 C30.6548488,13.2110467 30.2768479,14.4180086 29.5637981,15.4263108 L23.7506654,23.6464873 C23.206475,24.4160107 22.5124881,25.0677132 21.7103174,25.5625178 L14.1942122,30.1986921 C11.497987,31.8618101 7.96404101,31.0243113 6.30092297,28.328086 C5.7441239,27.4254106 5.44849578,26.3860359 5.44688638,25.3254486 L5.42856719,13.2531951 C5.42272969,9.40631335 8.52222875,6.27557093 12.3689756,6.2428265 L24.7057653,6.13781277 Z M15.7368704,10.7126012 C12.4124863,10.7126012 9.71754042,13.4771752 9.71754042,16.8874502 C9.71754042,20.2977251 12.4124863,23.0622992 15.7368704,23.0622992 C19.0612546,23.0622992 21.7562004,20.2977251 21.7562004,16.8874502 C21.7562004,13.4771752 19.0612546,10.7126012 15.7368704,10.7126012 Z" id="Combined-Shape" transform="translate(18.897028, 19.297190) rotate(45.000000) translate(-18.897028, -19.297190) "></path>
                </g>
            </g>
        </g>
    </g>
</svg>