<?xml version="1.0" encoding="UTF-8"?>
<svg width="1200px" height="1200px" viewBox="0 0 1200 1200" version="1.1" xmlns="http://www.w3.org/2000/svg" xmlns:xlink="http://www.w3.org/1999/xlink">
    <title>Flat Color</title>
    <defs>
        <path d="M95.7304228,0.5220647 L170.505015,336.499535 L480.229219,489.495104 L789.971428,336.499535 L864.272965,2.57680817 C923.457288,82.2984803 958.469462,181.037708 958.469462,287.954467 C958.469462,552.628501 743.908764,767.189198 479.234731,767.189198 C214.560697,767.189198 0,552.628501 0,287.954467 C0,180.117259 35.6176102,80.5989884 95.7304228,0.5220647 Z" id="path-1"></path>
        <polygon id="path-3" points="386.737799 0.204059126 77.0135949 153.199629 0.507584304 496.989456 214.855855 772.699163 558.637748 772.699163 772.968013 496.989456 696.480008 153.199629"></polygon>
        <path d="M62.1917906,124.343296 C27.887166,124.343296 0.0777929894,96.5339225 0.0777929894,62.2292979 C0.0777929894,27.9244418 27.887166,0.115068797 62.1917906,0.115068797 C96.4964152,0.115068797 124.30602,27.9244418 124.30602,62.2292979 C124.30602,96.5339225 96.4964152,124.343296 62.1917906,124.343296 Z" id="path-5"></path>
        <path d="M42.2247172,83.9415479 C19.0450392,83.9415479 0.25417862,65.1506874 0.25417862,41.9705386 C0.25417862,18.7908606 19.0450392,0 42.2247172,0 C65.4043953,0 84.1952559,18.7908606 84.1952559,41.9705386 C84.1952559,65.1506874 65.4043953,83.9415479 42.2247172,83.9415479 Z" id="path-7"></path>
        <path d="M79.1352222,157.967663 C35.5999049,157.967663 0.30736785,122.675657 0.30736785,79.1403398 C0.30736785,35.6050226 35.5999049,0.313016264 79.1352222,0.313016264 C122.670009,0.313016264 157.962546,35.6050226 157.962546,79.1403398 C157.962546,122.675657 122.670009,157.967663 79.1352222,157.967663 Z" id="path-9"></path>
    </defs>
    <g id="Flat-Color" stroke="none" stroke-width="1" fill="none" fill-rule="evenodd">
        <g id="Logo" transform="translate(-221.000000, 16.000998)">
            <g id="Group-8" transform="translate(0.000000, 0.953967)">
                <g id="Group" transform="translate(341.809974, 283.574221)">
                    <mask id="mask-2" fill="white">
                        <use xlink:href="#path-1"></use>
                    </mask>
                    <use id="Combined-Shape" fill="#9F64DF" fill-rule="nonzero" xlink:href="#path-1"></use>
                </g>
                <g id="Group-9" transform="translate(435.301394, 0.370162)">
                    <mask id="mask-4" fill="white">
                        <use xlink:href="#path-3"></use>
                    </mask>
                    <g id="Shape" fill-rule="nonzero" transform="translate(386.737799, 386.451611) scale(1, -1) translate(-386.737799, -386.451611) "></g>
                    <g id="Group-136" mask="url(#mask-4)">
                        <g transform="translate(472.343881, 171.557528)">
                            <mask id="mask-6" fill="white">
                                <use xlink:href="#path-5"></use>
                            </mask>
                            <g id="Clip-135" stroke="none" fill="none"></g>
                            <polygon id="Fill-134" stroke="none" fill="#FD863A" fill-rule="evenodd" mask="url(#mask-6)" points="-1.07984078 -1.04256497 125.463654 -1.04256497 125.463654 125.500929 -1.07984078 125.500929"></polygon>
                        </g>
                    </g>
                    <polygon id="innerk8s" fill="#1F5DCD" fill-rule="nonzero" mask="url(#mask-4)" points="386.737799 177.444142 77.0135949 330.439711 0.507584304 674.229539 214.855855 949.939246 558.637748 949.939246 772.968013 674.229539 696.480008 330.439711"></polygon>
                </g>
                <g id="linbes" opacity="0.100000001" transform="translate(0.346942, 18.486814)" fill-rule="nonzero" stroke="#FFFFFF" stroke-width="13">
                    <line x1="396.754141" y1="85.660836" x2="733.611431" y2="1667.90276" id="Path-7"></line>
                    <line x1="1251.05201" y1="92.7720356" x2="893.358187" y2="1667.90276" id="Path-8"></line>
                    <line x1="1553.18175" y1="1131.34039" x2="64.1835338" y2="384.331084" id="Path-9"></line>
                    <line x1="1578.30496" y1="1144.75721" x2="61.8231453" y2="385.331084" id="Path-9" transform="translate(820.064053, 765.044146) scale(-1, 1) translate(-820.064053, -765.044146) "></line>
                    <line x1="639.643549" y1="0.562554167" x2="0.303822995" y2="788.169583" id="Path-10"></line>
                    <line x1="1027.62903" y1="22.3406031" x2="1583.71758" y2="757.321977" id="Path-11"></line>
                </g>
            </g>
            <g id="bubbles" transform="translate(581.731865, 35.000000)">
                <g id="interior-core" transform="translate(97.905839, 0.325309)">
                    <mask id="mask-8" fill="white">
                        <use xlink:href="#path-7"></use>
                    </mask>
                    <g id="Clip-138"></g>
                    <polygon id="Fill-137" fill="#1FF6EF" mask="url(#mask-8)" points="-2.09932712 -2.35350574 86.5487616 -2.35350574 86.5487616 86.2950537 -2.09932712 86.2950537"></polygon>
                </g>
                <g id="bubble" transform="translate(0.000000, 179.987296)">
                    <mask id="mask-10" fill="white">
                        <use xlink:href="#path-9"></use>
                    </mask>
                    <g id="Clip-141"></g>
                    <polygon id="Fill-140" fill="#43CAF8" mask="url(#mask-10)" points="-2.04613789 -2.04048948 192.494277 -2.04048948 192.494277 192.499292 -2.04613789 192.499292"></polygon>
                </g>
            </g>
        </g>
    </g>
</svg>