<?xml version="1.0" encoding="UTF-8"?>
<svg width="1200px" height="1200px" viewBox="0 0 1200 1200" version="1.1" xmlns="http://www.w3.org/2000/svg" xmlns:xlink="http://www.w3.org/1999/xlink">
    <title>Large Icon</title>
    <defs>
        <path d="M62.1917906,124.343296 C27.887166,124.343296 0.0777929894,96.5339225 0.0777929894,62.2292979 C0.0777929894,27.9244418 27.887166,0.115068797 62.1917906,0.115068797 C96.4964152,0.115068797 124.30602,27.9244418 124.30602,62.2292979 C124.30602,96.5339225 96.4964152,124.343296 62.1917906,124.343296 Z" id="path-1"></path>
        <linearGradient x1="50%" y1="0%" x2="50%" y2="100%" id="linearGradient-3">
            <stop stop-color="#2A69D9" offset="0%"></stop>
            <stop stop-color="#1A59C8" offset="100%"></stop>
        </linearGradient>
        <linearGradient x1="50%" y1="0%" x2="50%" y2="100%" id="linearGradient-4">
            <stop stop-color="#BF87ED" offset="0%"></stop>
            <stop stop-color="#8B4FD7" offset="100%"></stop>
        </linearGradient>
        <path d="M95.7304228,112.522065 L170.505015,448.499535 L480.229219,601.495104 L789.971428,448.499535 L864.272965,114.576808 C923.457288,194.29848 958.469462,293.037708 958.469462,399.954467 C958.469462,664.628501 743.908764,879.189198 479.234731,879.189198 C214.560697,879.189198 5.68434189e-14,664.628501 5.68434189e-14,399.954467 C5.68434189e-14,292.117259 35.6176102,192.598988 95.7304228,112.522065 Z" id="path-5"></path>
        <linearGradient x1="50%" y1="18.4423675%" x2="50%" y2="65.6612252%" id="linearGradient-7">
            <stop stop-color="#CAA1EC" offset="0%"></stop>
            <stop stop-color="#A372DC" offset="100%"></stop>
        </linearGradient>
        <linearGradient x1="50%" y1="18.4423675%" x2="50%" y2="65.6612252%" id="linearGradient-8">
            <stop stop-color="#CAA1EC" offset="0%"></stop>
            <stop stop-color="#A372DC" offset="100%"></stop>
        </linearGradient>
        <path d="M42.2247172,83.9415479 C19.0450392,83.9415479 0.25417862,65.1506874 0.25417862,41.9705386 C0.25417862,18.7908606 19.0450392,0 42.2247172,0 C65.4043953,0 84.1952559,18.7908606 84.1952559,41.9705386 C84.1952559,65.1506874 65.4043953,83.9415479 42.2247172,83.9415479 Z" id="path-9"></path>
        <path d="M79.1352222,157.967663 C35.5999049,157.967663 0.30736785,122.675657 0.30736785,79.1403398 C0.30736785,35.6050226 35.5999049,0.313016264 79.1352222,0.313016264 C122.670009,0.313016264 157.962546,35.6050226 157.962546,79.1403398 C157.962546,122.675657 122.670009,157.967663 79.1352222,157.967663 Z" id="path-11"></path>
    </defs>
    <g id="Large-Icon" stroke="none" stroke-width="1" fill="none" fill-rule="evenodd">
        <g id="Logo" transform="translate(120.000000, 51.000998)">
            <g id="Group-8" transform="translate(0.000000, 136.953967)">
                <g id="Group" transform="translate(0.809974, 0.574221)">
                    <g id="Group-136" transform="translate(565.835301, 0.353469)">
                        <mask id="mask-2" fill="white">
                            <use xlink:href="#path-1"></use>
                        </mask>
                        <g id="Clip-135"></g>
                        <polygon id="Fill-134" fill="#FD863A" mask="url(#mask-2)" points="-1.07984078 -1.04256497 125.463654 -1.04256497 125.463654 125.500929 -1.07984078 125.500929"></polygon>
                    </g>
                    <polygon id="Path" fill="url(#linearGradient-3)" fill-rule="nonzero" points="480.229219 6.24008285 170.505015 159.235652 133.160729 329.673938 149.505015 470.499535 479.5 625.380969 807.094323 461.505969 830.127526 343.338001 789.971428 159.235652"></polygon>
                    <mask id="mask-6" fill="white">
                        <use xlink:href="#path-5"></use>
                    </mask>
                    <use id="Combined-Shape" fill="url(#linearGradient-4)" fill-rule="nonzero" xlink:href="#path-5"></use>
                    <g id="linbes" mask="url(#mask-6)" fill-rule="nonzero" stroke-width="13">
                        <g transform="translate(-341.463032, -153.087408)">
                            <line x1="396.754141" y1="85.660836" x2="733.611431" y2="1667.90276" id="Path-7" stroke="#A372DC"></line>
                            <line x1="1251.05201" y1="92.7720356" x2="893.358187" y2="1667.90276" id="Path-8" stroke="#A372DC"></line>
                            <line x1="639.643549" y1="0.562554167" x2="0.303822995" y2="788.169583" id="Path-10" stroke="#A372DC"></line>
                            <line x1="1027.62903" y1="22.3406031" x2="1583.71758" y2="757.321977" id="Path-11" stroke="#A372DC"></line>
                            <line x1="1553.18175" y1="1131.34039" x2="64.1835338" y2="384.331084" id="Path-9" stroke="url(#linearGradient-7)"></line>
                            <line x1="1578.30496" y1="1144.75721" x2="61.8231453" y2="385.331084" id="Path-9" stroke="url(#linearGradient-8)" transform="translate(820.064053, 765.044146) scale(-1, 1) translate(-820.064053, -765.044146) "></line>
                        </g>
                    </g>
                </g>
            </g>
            <g id="bubbles" transform="translate(240.731865, 0.000000)">
                <g id="interior-core" transform="translate(97.905839, 0.325309)">
                    <mask id="mask-10" fill="white">
                        <use xlink:href="#path-9"></use>
                    </mask>
                    <g id="Clip-138"></g>
                    <polygon id="Fill-137" fill="#1FF6EF" mask="url(#mask-10)" points="-2.09932712 -2.35350574 86.5487616 -2.35350574 86.5487616 86.2950537 -2.09932712 86.2950537"></polygon>
                </g>
                <g id="bubble" transform="translate(0.000000, 179.987296)">
                    <mask id="mask-12" fill="white">
                        <use xlink:href="#path-11"></use>
                    </mask>
                    <g id="Clip-141"></g>
                    <polygon id="Fill-140" fill="#43CAF8" mask="url(#mask-12)" points="-2.04613789 -2.04048948 192.494277 -2.04048948 192.494277 192.499292 -2.04613789 192.499292"></polygon>
                </g>
            </g>
        </g>
    </g>
</svg>